# xmcd
#
# Track frame offsets:
#	150
#	12175
#	28690
#	46731
#	60454
#	79236
#	98843
#	119267
#	129976
#	146822
#
# Disc length: 2222 seconds
#
# Revision: 0
# Processed by: cddbd v1.5.1PL2 Copyright (c) Steve Scherf et al.
# Submitted via: audiograbber 1.82.01
#
DISCID=7c08ac0a
DTITLE=Mike Sweeney - Odds and Ends
DYEAR=1900
DGENRE=Country
TTITLE0=You're Still On My Mind
TTITLE1=Colorado
TTITLE2=I Left My Heart In San Francisco
TTITLE3=A World I Can't Live In (w/ Damon Gray)
TTITLE4=Yes Ma'am (w/ Shawna Thompson)
TTITLE5=Across The Alley From The Alamo
TTITLE6=Cinderella
TTITLE7=Odds And Ends, Bits And Pieces
TTITLE8=I've Seen Better Days
TTITLE9=Undecided
EXTD=
EXTT0=
EXTT1=
EXTT2=
EXTT3=
EXTT4=
EXTT5=
EXTT6=
EXTT7=
EXTT8=
EXTT9=
PLAYORDER=
